<?xml version='1.0' encoding='utf-8'?>
<svg xmlns="http://www.w3.org/2000/svg" width="91.44mm" height="91.44mm" version="1.1" style="shape-rendering:geometricPrecision; text-rendering:geometricPrecision; image-rendering:optimizeQuality; fill-rule:evenodd; clip-rule:evenodd" viewBox="0 0 9144 9144"> <defs> <style type="text/css">  .fil0 {fill:#F0F0F0} .fil1 {fill:white;fill-rule:nonzero}  </style> </defs> <g id="Layer_x0020_1"> <metadata id="CorelCorpID_0Corel-Layer"/> <g id="_2744571586128"> <path class="fil1" d="M2551 2455l4042 0c53,0 96,43 96,96l0 4042c0,53 -43,96 -96,96l-4042 0c-53,0 -96,-43 -96,-96l0 -4042c0,-53 43,-96 96,-96zm859 1644c-53,0 -96,-43 -96,-96 0,-53 43,-96 96,-96l2650 0c53,0 96,43 96,96 0,53 -43,96 -96,96l-2650 0zm0 644c-53,0 -96,-43 -96,-96 0,-53 43,-96 96,-96l2650 0c53,0 96,43 96,96 0,53 -43,96 -96,96l-2650 0zm0 643c-53,0 -96,-42 -96,-95 0,-53 43,-96 96,-96l2650 0c53,0 96,43 96,96 0,53 -43,95 -96,95l-2650 0zm0 644c-53,0 -96,-43 -96,-96 0,-52 43,-95 96,-95l2650 0c53,0 96,43 96,95 0,53 -43,96 -96,96l-2650 0zm-326 0c-53,0 -96,-43 -96,-96 0,-52 43,-95 96,-95l2 0c53,0 96,43 96,95 0,53 -43,96 -96,96l-2 0zm0 -644c-53,0 -96,-42 -96,-95 0,-53 43,-96 96,-96l2 0c53,0 96,43 96,96 0,53 -43,95 -96,95l-2 0zm0 -643c-53,0 -96,-43 -96,-96 0,-53 43,-96 96,-96l2 0c53,0 96,43 96,96 0,53 -43,96 -96,96l-2 0zm2976 -1196l-2976 0c-53,0 -96,-43 -96,-96l0 -404c0,-53 43,-96 96,-96l2976 0c53,0 96,43 96,96l0 404c0,53 -43,96 -96,96zm-2880 -191l2784 0 0 -213 -2784 0 0 213zm-96 743c-53,0 -96,-43 -96,-96 0,-53 43,-96 96,-96l2 0c53,0 96,43 96,96 0,53 -43,96 -96,96l-2 0zm3413 -1452l-3850 0 0 3850 3850 0 0 -3850z"/> </g> </g> </svg>