<?xml version='1.0' encoding='utf-8'?>
<svg xmlns="http://www.w3.org/2000/svg"  width="91.44mm" height="91.44mm"  version="1.1" style="shape-rendering:geometricPrecision; text-rendering:geometricPrecision; image-rendering:optimizeQuality; fill-rule:evenodd; clip-rule:evenodd" viewBox="0 0 9144 9144"> <defs> <style type="text/css">  .fil0 {fill:transparent} .fil1 {fill:white;fill-rule:nonzero}  </style> </defs> <g id="Layer_x0020_1"> <metadata id="CorelCorpID_0Corel-Layer"/> <g id="_2744621439392"> <polygon class="fil0" points="0,0 9144,0 9144,9144 0,9144 "/> <path class="fil1" d="M3014 2455l3116 0c46,0 84,38 84,85l0 4064c0,47 -38,85 -84,85l-3116 0c-46,0 -84,-38 -84,-85l0 -4064c0,-47 38,-85 84,-85zm406 3556c-46,0 -84,-37 -84,-84 0,-47 38,-85 84,-85l2303 0c47,0 85,38 85,85 0,47 -38,84 -85,84l-2303 0zm0 -677c-46,0 -84,-38 -84,-85 0,-46 38,-84 84,-84l2303 0c47,0 85,38 85,84 0,47 -38,85 -85,85l-2303 0zm1363 -2198l805 -1c46,0 84,38 84,85l1 0 0 677c0,47 -38,85 -85,85 -3,0 -6,0 -8,-1l-805 -5c-47,0 -84,-38 -84,-84l-1 0 0 -672c0,-47 38,-85 85,-85 3,0 5,0 8,1zm720 168l-643 0 0 504 643 4 0 -508zm-2082 -3c-47,0 -85,-38 -85,-84 0,-47 38,-84 85,-84l948 -1c46,0 84,38 84,85 0,46 -38,84 -84,84l-948 0zm-1 1355c-46,0 -84,-37 -84,-84 0,-47 38,-84 84,-84l2303 -1c47,0 85,38 85,85 0,46 -38,84 -85,84l-2303 0zm1 -677c-47,0 -85,-38 -85,-85 0,-46 38,-84 85,-84l950 -1c46,0 84,38 84,84 0,47 -38,85 -84,85l-950 1zm2624 -1354l-2946 0 0 3894 2946 0 0 -3894z"/> </g> </g> </svg>